<svg xmlns="http://www.w3.org/2000/svg" viewBox="0 0 128 128">
  <defs>
    <linearGradient id="tile" x1="12" y1="8" x2="118" y2="122" gradientUnits="userSpaceOnUse">
      <stop stop-color="#087df4"/>
      <stop offset="0.48" stop-color="#1729c9"/>
      <stop offset="1" stop-color="#9d0bff"/>
    </linearGradient>
    <linearGradient id="download" x1="64" y1="58" x2="64" y2="109" gradientUnits="userSpaceOnUse">
      <stop stop-color="#52f3ee"/>
      <stop offset="1" stop-color="#0799ff"/>
    </linearGradient>
  </defs>
  <rect x="2" y="2" width="124" height="124" rx="25" fill="url(#tile)"/>
  <path d="M48 24.5c0-4.1 4.5-6.6 8-4.4l29.5 18.4c3.3 2.1 3.3 6.9 0 9L56 65.9c-3.5 2.2-8-.3-8-4.4v-37Z" fill="#fff"/>
  <path d="M57 62a5 5 0 0 1 5-5h8a5 5 0 0 1 5 5v17h10.6c4.4 0 6.6 5.3 3.5 8.4L69.5 107a5 5 0 0 1-7 0L42.9 87.4c-3.1-3.1-.9-8.4 3.5-8.4H57V62Z" fill="url(#download)"/>
  <rect x="40" y="111" width="52" height="7" rx="3.5" fill="#43eceb"/>
</svg>
